<?xml version="1.0" encoding="utf-8" standalone="no"?>
<!DOCTYPE svg PUBLIC "-//W3C//DTD SVG 1.1//EN"
  "http://www.w3.org/Graphics/SVG/1.1/DTD/svg11.dtd">
<!-- Created with matplotlib (https://matplotlib.org/) -->
<svg height="720pt" version="1.1" viewBox="0 0 1440 720" width="1440pt" xmlns="http://www.w3.org/2000/svg" xmlns:xlink="http://www.w3.org/1999/xlink">
 <metadata>
  <rdf:RDF xmlns:cc="http://creativecommons.org/ns#" xmlns:dc="http://purl.org/dc/elements/1.1/" xmlns:rdf="http://www.w3.org/1999/02/22-rdf-syntax-ns#">
   <cc:Work>
    <dc:type rdf:resource="http://purl.org/dc/dcmitype/StillImage"/>
    <dc:date>2020-11-26T15:12:31.395365</dc:date>
    <dc:format>image/svg+xml</dc:format>
    <dc:creator>
     <cc:Agent>
      <dc:title>Matplotlib v3.3.2, https://matplotlib.org/</dc:title>
     </cc:Agent>
    </dc:creator>
   </cc:Work>
  </rdf:RDF>
 </metadata>
 <defs>
  <style type="text/css">*{stroke-linecap:butt;stroke-linejoin:round;}</style>
 </defs>
 <g id="figure_1">
  <g id="patch_1">
   <path d="M 0 720 
L 1440 720 
L 1440 0 
L 0 0 
z
" style="fill:#ffffff;"/>
  </g>
  <g id="axes_1">
   <g id="patch_2">
    <path d="M 180 640.8 
L 1296 640.8 
L 1296 86.4 
L 180 86.4 
z
" style="fill:#ffffff;"/>
   </g>
   <g id="matplotlib.axis_1">
    <g id="xtick_1">
     <g id="line2d_1">
      <defs>
       <path d="M 0 0 
L 0 3.5 
" id="m00405eaaaa" style="stroke:#000000;stroke-width:0.8;"/>
      </defs>
      <g>
       <use style="stroke:#000000;stroke-width:0.8;" x="230.727273" xlink:href="#m00405eaaaa" y="640.8"/>
      </g>
     </g>
     <g id="text_1">
      <!-- 11日 2 -->
      <g transform="translate(227.973366 647.8)rotate(-270)scale(0.1 -0.1)">
       <defs>
        <path d="M 42.4375 77.296875 
L 42.4375 0 
L 26.5625 0 
L 26.5625 59.515625 
Q 23.640625 56.984375 18.5625 54.953125 
Q 13.484375 52.9375 9.234375 52.4375 
L 9.234375 65.96875 
Q 22.609375 69.875 32.375 77.296875 
z
" id="MicrosoftYaHei-Bold-49"/>
        <path d="M 11.71875 -12.15625 
L 11.71875 77.6875 
L 88.875 77.6875 
L 88.875 -12.15625 
L 73.828125 -12.15625 
L 73.828125 -5.328125 
L 26.765625 -5.328125 
L 26.765625 -12.15625 
z
M 73.828125 63.8125 
L 26.765625 63.8125 
L 26.765625 43.3125 
L 73.828125 43.3125 
z
M 26.765625 8.546875 
L 73.828125 8.546875 
L 73.828125 29.828125 
L 26.765625 29.828125 
z
" id="MicrosoftYaHei-Bold-26085"/>
        <path id="MicrosoftYaHei-Bold-32"/>
        <path d="M 23.4375 13.140625 
L 55.515625 13.140625 
L 55.515625 0 
L 5.21875 0 
L 5.21875 5.609375 
Q 5.21875 11.53125 7.390625 16.40625 
Q 9.578125 21.296875 13.375 25.515625 
Q 17.1875 29.734375 25.203125 35.40625 
Q 32.515625 40.875 35.4375 45.09375 
Q 38.375 49.3125 38.375 54.046875 
Q 38.375 64.265625 27.25 64.265625 
Q 17.484375 64.265625 8.59375 56.453125 
L 8.59375 70.515625 
Q 18.5 76.90625 30.859375 76.90625 
Q 42.1875 76.90625 48.78125 71.109375 
Q 55.375 65.328125 55.375 55.171875 
Q 55.375 49.515625 53.46875 44.9375 
Q 51.5625 40.375 47.953125 36.375 
Q 44.34375 32.375 36.375 26.765625 
Q 28.71875 21.296875 26.078125 18.3125 
Q 23.4375 15.328125 23.4375 13.140625 
z
" id="MicrosoftYaHei-Bold-50"/>
       </defs>
       <use xlink:href="#MicrosoftYaHei-Bold-49"/>
       <use x="61.669922" xlink:href="#MicrosoftYaHei-Bold-49"/>
       <use x="123.339844" xlink:href="#MicrosoftYaHei-Bold-26085"/>
       <use x="223.339844" xlink:href="#MicrosoftYaHei-Bold-32"/>
       <use x="253.125" xlink:href="#MicrosoftYaHei-Bold-50"/>
      </g>
     </g>
    </g>
    <g id="xtick_2">
     <g id="line2d_2">
      <g>
       <use style="stroke:#000000;stroke-width:0.8;" x="322.958678" xlink:href="#m00405eaaaa" y="640.8"/>
      </g>
     </g>
     <g id="text_2">
      <!-- 11日 4 -->
      <g transform="translate(320.204771 647.8)rotate(-270)scale(0.1 -0.1)">
       <defs>
        <path d="M 49.75 75.640625 
L 49.75 27.59375 
L 60.453125 27.59375 
L 60.453125 16.109375 
L 49.75 16.109375 
L 49.75 0 
L 35.40625 0 
L 35.40625 16.109375 
L 1.609375 16.109375 
L 1.609375 27.6875 
Q 12.109375 39.40625 21.28125 52.484375 
Q 30.46875 65.578125 35.15625 75.640625 
z
M 15.578125 27.59375 
L 35.40625 27.59375 
L 35.40625 55.328125 
Q 33.0625 50.921875 28.6875 44.671875 
Q 24.3125 38.421875 15.578125 27.59375 
z
" id="MicrosoftYaHei-Bold-52"/>
       </defs>
       <use xlink:href="#MicrosoftYaHei-Bold-49"/>
       <use x="61.669922" xlink:href="#MicrosoftYaHei-Bold-49"/>
       <use x="123.339844" xlink:href="#MicrosoftYaHei-Bold-26085"/>
       <use x="223.339844" xlink:href="#MicrosoftYaHei-Bold-32"/>
       <use x="253.125" xlink:href="#MicrosoftYaHei-Bold-52"/>
      </g>
     </g>
    </g>
    <g id="xtick_3">
     <g id="line2d_3">
      <g>
       <use style="stroke:#000000;stroke-width:0.8;" x="415.190083" xlink:href="#m00405eaaaa" y="640.8"/>
      </g>
     </g>
     <g id="text_3">
      <!-- 11日 6 -->
      <g transform="translate(412.436176 647.8)rotate(-270)scale(0.1 -0.1)">
       <defs>
        <path d="M 52.78125 61.53125 
Q 47.015625 64.796875 40.234375 64.796875 
Q 31.5 64.796875 26.25 57.9375 
Q 21 51.078125 21 40.1875 
L 21.296875 40.1875 
Q 26.703125 48.484375 37.359375 48.484375 
Q 46.875 48.484375 52.46875 41.96875 
Q 58.0625 35.453125 58.0625 25 
Q 58.0625 13.578125 50.78125 6.125 
Q 43.5 -1.3125 32.171875 -1.3125 
Q 19.1875 -1.3125 12.28125 8.0625 
Q 5.375 17.4375 5.375 33.734375 
Q 5.375 52.9375 14.328125 64.921875 
Q 23.296875 76.90625 39.265625 76.90625 
Q 47.859375 76.90625 52.78125 74.859375 
z
M 21.53125 24.859375 
Q 21.53125 19 24.453125 14.890625 
Q 27.390625 10.796875 32.171875 10.796875 
Q 37.015625 10.796875 39.796875 14.546875 
Q 42.578125 18.3125 42.578125 23.96875 
Q 42.578125 36.71875 32.078125 36.71875 
Q 27.34375 36.71875 24.4375 33.34375 
Q 21.53125 29.984375 21.53125 24.859375 
z
" id="MicrosoftYaHei-Bold-54"/>
       </defs>
       <use xlink:href="#MicrosoftYaHei-Bold-49"/>
       <use x="61.669922" xlink:href="#MicrosoftYaHei-Bold-49"/>
       <use x="123.339844" xlink:href="#MicrosoftYaHei-Bold-26085"/>
       <use x="223.339844" xlink:href="#MicrosoftYaHei-Bold-32"/>
       <use x="253.125" xlink:href="#MicrosoftYaHei-Bold-54"/>
      </g>
     </g>
    </g>
    <g id="xtick_4">
     <g id="line2d_4">
      <g>
       <use style="stroke:#000000;stroke-width:0.8;" x="507.421488" xlink:href="#m00405eaaaa" y="640.8"/>
      </g>
     </g>
     <g id="text_4">
      <!-- 11日 8 -->
      <g transform="translate(504.667581 647.8)rotate(-270)scale(0.1 -0.1)">
       <defs>
        <path d="M 4.203125 20.359375 
Q 4.203125 26.953125 8 32.078125 
Q 11.8125 37.203125 19.046875 39.59375 
Q 13.28125 42.484375 10.125 46.921875 
Q 6.984375 51.375 6.984375 56.78125 
Q 6.984375 62.453125 10.078125 67.0625 
Q 13.1875 71.6875 18.75 74.296875 
Q 24.3125 76.90625 31.203125 76.90625 
Q 38.140625 76.90625 43.75 74.34375 
Q 49.359375 71.78125 52.484375 67.15625 
Q 55.609375 62.546875 55.609375 56.984375 
Q 55.609375 51.703125 52.171875 47.15625 
Q 48.734375 42.625 42.921875 39.984375 
Q 50 37.546875 53.953125 32.4375 
Q 57.90625 27.34375 57.90625 20.515625 
Q 57.90625 10.890625 50.4375 4.828125 
Q 42.96875 -1.21875 31.0625 -1.21875 
Q 19.140625 -1.21875 11.671875 4.828125 
Q 4.203125 10.890625 4.203125 20.359375 
z
M 19.96875 21.78125 
Q 19.96875 16.5 23 13.328125 
Q 26.03125 10.15625 31.109375 10.15625 
Q 35.984375 10.15625 39.109375 13.328125 
Q 42.234375 16.5 42.234375 21.78125 
Q 42.234375 26.703125 39.0625 30 
Q 35.890625 33.296875 31.109375 33.296875 
Q 26.171875 33.296875 23.0625 30 
Q 19.96875 26.703125 19.96875 21.78125 
z
M 22.3125 55.171875 
Q 22.3125 51.03125 24.875 48.078125 
Q 27.4375 45.125 31.34375 45.125 
Q 35.109375 45.125 37.734375 48 
Q 40.375 50.875 40.375 55.171875 
Q 40.375 59.46875 37.8125 62.453125 
Q 35.25 65.4375 31.34375 65.4375 
Q 27.34375 65.4375 24.828125 62.453125 
Q 22.3125 59.46875 22.3125 55.171875 
z
" id="MicrosoftYaHei-Bold-56"/>
       </defs>
       <use xlink:href="#MicrosoftYaHei-Bold-49"/>
       <use x="61.669922" xlink:href="#MicrosoftYaHei-Bold-49"/>
       <use x="123.339844" xlink:href="#MicrosoftYaHei-Bold-26085"/>
       <use x="223.339844" xlink:href="#MicrosoftYaHei-Bold-32"/>
       <use x="253.125" xlink:href="#MicrosoftYaHei-Bold-56"/>
      </g>
     </g>
    </g>
    <g id="xtick_5">
     <g id="line2d_5">
      <g>
       <use style="stroke:#000000;stroke-width:0.8;" x="599.652893" xlink:href="#m00405eaaaa" y="640.8"/>
      </g>
     </g>
     <g id="text_5">
      <!-- 11日 10 -->
      <g transform="translate(596.898986 647.8)rotate(-270)scale(0.1 -0.1)">
       <defs>
        <path d="M 3.8125 36.578125 
Q 3.8125 56.203125 11.03125 66.546875 
Q 18.265625 76.90625 31.9375 76.90625 
Q 58.015625 76.90625 58.015625 38.328125 
Q 58.015625 19.34375 50.921875 9.015625 
Q 43.84375 -1.3125 30.46875 -1.3125 
Q 3.8125 -1.3125 3.8125 36.578125 
z
M 19.78125 36.96875 
Q 19.78125 10.796875 30.953125 10.796875 
Q 41.9375 10.796875 41.9375 37.75 
Q 41.9375 64.796875 31.25 64.796875 
Q 19.78125 64.796875 19.78125 36.96875 
z
" id="MicrosoftYaHei-Bold-48"/>
       </defs>
       <use xlink:href="#MicrosoftYaHei-Bold-49"/>
       <use x="61.669922" xlink:href="#MicrosoftYaHei-Bold-49"/>
       <use x="123.339844" xlink:href="#MicrosoftYaHei-Bold-26085"/>
       <use x="223.339844" xlink:href="#MicrosoftYaHei-Bold-32"/>
       <use x="253.125" xlink:href="#MicrosoftYaHei-Bold-49"/>
       <use x="314.794922" xlink:href="#MicrosoftYaHei-Bold-48"/>
      </g>
     </g>
    </g>
    <g id="xtick_6">
     <g id="line2d_6">
      <g>
       <use style="stroke:#000000;stroke-width:0.8;" x="691.884298" xlink:href="#m00405eaaaa" y="640.8"/>
      </g>
     </g>
     <g id="text_6">
      <!-- 11日 12 -->
      <g transform="translate(689.130391 647.8)rotate(-270)scale(0.1 -0.1)">
       <use xlink:href="#MicrosoftYaHei-Bold-49"/>
       <use x="61.669922" xlink:href="#MicrosoftYaHei-Bold-49"/>
       <use x="123.339844" xlink:href="#MicrosoftYaHei-Bold-26085"/>
       <use x="223.339844" xlink:href="#MicrosoftYaHei-Bold-32"/>
       <use x="253.125" xlink:href="#MicrosoftYaHei-Bold-49"/>
       <use x="314.794922" xlink:href="#MicrosoftYaHei-Bold-50"/>
      </g>
     </g>
    </g>
    <g id="xtick_7">
     <g id="line2d_7">
      <g>
       <use style="stroke:#000000;stroke-width:0.8;" x="784.115702" xlink:href="#m00405eaaaa" y="640.8"/>
      </g>
     </g>
     <g id="text_7">
      <!-- 11日 14 -->
      <g transform="translate(781.361796 647.8)rotate(-270)scale(0.1 -0.1)">
       <use xlink:href="#MicrosoftYaHei-Bold-49"/>
       <use x="61.669922" xlink:href="#MicrosoftYaHei-Bold-49"/>
       <use x="123.339844" xlink:href="#MicrosoftYaHei-Bold-26085"/>
       <use x="223.339844" xlink:href="#MicrosoftYaHei-Bold-32"/>
       <use x="253.125" xlink:href="#MicrosoftYaHei-Bold-49"/>
       <use x="314.794922" xlink:href="#MicrosoftYaHei-Bold-52"/>
      </g>
     </g>
    </g>
    <g id="xtick_8">
     <g id="line2d_8">
      <g>
       <use style="stroke:#000000;stroke-width:0.8;" x="876.347107" xlink:href="#m00405eaaaa" y="640.8"/>
      </g>
     </g>
     <g id="text_8">
      <!-- 11日 16 -->
      <g transform="translate(873.593201 647.8)rotate(-270)scale(0.1 -0.1)">
       <use xlink:href="#MicrosoftYaHei-Bold-49"/>
       <use x="61.669922" xlink:href="#MicrosoftYaHei-Bold-49"/>
       <use x="123.339844" xlink:href="#MicrosoftYaHei-Bold-26085"/>
       <use x="223.339844" xlink:href="#MicrosoftYaHei-Bold-32"/>
       <use x="253.125" xlink:href="#MicrosoftYaHei-Bold-49"/>
       <use x="314.794922" xlink:href="#MicrosoftYaHei-Bold-54"/>
      </g>
     </g>
    </g>
    <g id="xtick_9">
     <g id="line2d_9">
      <g>
       <use style="stroke:#000000;stroke-width:0.8;" x="968.578512" xlink:href="#m00405eaaaa" y="640.8"/>
      </g>
     </g>
     <g id="text_9">
      <!-- 11日 18 -->
      <g transform="translate(965.824606 647.8)rotate(-270)scale(0.1 -0.1)">
       <use xlink:href="#MicrosoftYaHei-Bold-49"/>
       <use x="61.669922" xlink:href="#MicrosoftYaHei-Bold-49"/>
       <use x="123.339844" xlink:href="#MicrosoftYaHei-Bold-26085"/>
       <use x="223.339844" xlink:href="#MicrosoftYaHei-Bold-32"/>
       <use x="253.125" xlink:href="#MicrosoftYaHei-Bold-49"/>
       <use x="314.794922" xlink:href="#MicrosoftYaHei-Bold-56"/>
      </g>
     </g>
    </g>
    <g id="xtick_10">
     <g id="line2d_10">
      <g>
       <use style="stroke:#000000;stroke-width:0.8;" x="1060.809917" xlink:href="#m00405eaaaa" y="640.8"/>
      </g>
     </g>
     <g id="text_10">
      <!-- 11日 20 -->
      <g transform="translate(1058.056011 647.8)rotate(-270)scale(0.1 -0.1)">
       <use xlink:href="#MicrosoftYaHei-Bold-49"/>
       <use x="61.669922" xlink:href="#MicrosoftYaHei-Bold-49"/>
       <use x="123.339844" xlink:href="#MicrosoftYaHei-Bold-26085"/>
       <use x="223.339844" xlink:href="#MicrosoftYaHei-Bold-32"/>
       <use x="253.125" xlink:href="#MicrosoftYaHei-Bold-50"/>
       <use x="314.794922" xlink:href="#MicrosoftYaHei-Bold-48"/>
      </g>
     </g>
    </g>
    <g id="xtick_11">
     <g id="line2d_11">
      <g>
       <use style="stroke:#000000;stroke-width:0.8;" x="1153.041322" xlink:href="#m00405eaaaa" y="640.8"/>
      </g>
     </g>
     <g id="text_11">
      <!-- 11日 22 -->
      <g transform="translate(1150.287416 647.8)rotate(-270)scale(0.1 -0.1)">
       <use xlink:href="#MicrosoftYaHei-Bold-49"/>
       <use x="61.669922" xlink:href="#MicrosoftYaHei-Bold-49"/>
       <use x="123.339844" xlink:href="#MicrosoftYaHei-Bold-26085"/>
       <use x="223.339844" xlink:href="#MicrosoftYaHei-Bold-32"/>
       <use x="253.125" xlink:href="#MicrosoftYaHei-Bold-50"/>
       <use x="314.794922" xlink:href="#MicrosoftYaHei-Bold-50"/>
      </g>
     </g>
    </g>
    <g id="xtick_12">
     <g id="line2d_12">
      <g>
       <use style="stroke:#000000;stroke-width:0.8;" x="1245.272727" xlink:href="#m00405eaaaa" y="640.8"/>
      </g>
     </g>
     <g id="text_12">
      <!-- 11日 24 -->
      <g transform="translate(1242.518821 647.8)rotate(-270)scale(0.1 -0.1)">
       <use xlink:href="#MicrosoftYaHei-Bold-49"/>
       <use x="61.669922" xlink:href="#MicrosoftYaHei-Bold-49"/>
       <use x="123.339844" xlink:href="#MicrosoftYaHei-Bold-26085"/>
       <use x="223.339844" xlink:href="#MicrosoftYaHei-Bold-32"/>
       <use x="253.125" xlink:href="#MicrosoftYaHei-Bold-50"/>
       <use x="314.794922" xlink:href="#MicrosoftYaHei-Bold-52"/>
      </g>
     </g>
    </g>
   </g>
   <g id="matplotlib.axis_2">
    <g id="ytick_1">
     <g id="line2d_13">
      <defs>
       <path d="M 0 0 
L -3.5 0 
" id="m07ba65bc57" style="stroke:#000000;stroke-width:0.8;"/>
      </defs>
      <g>
       <use style="stroke:#000000;stroke-width:0.8;" x="180" xlink:href="#m07ba65bc57" y="576.830769"/>
      </g>
     </g>
     <g id="text_13">
      <!-- 14 -->
      <g transform="translate(160.665625 580.827644)scale(0.1 -0.1)">
       <use xlink:href="#MicrosoftYaHei-Bold-49"/>
       <use x="61.669922" xlink:href="#MicrosoftYaHei-Bold-52"/>
      </g>
     </g>
    </g>
    <g id="ytick_2">
     <g id="line2d_14">
      <g>
       <use style="stroke:#000000;stroke-width:0.8;" x="180" xlink:href="#m07ba65bc57" y="499.292308"/>
      </g>
     </g>
     <g id="text_14">
      <!-- 16 -->
      <g transform="translate(160.665625 503.289183)scale(0.1 -0.1)">
       <use xlink:href="#MicrosoftYaHei-Bold-49"/>
       <use x="61.669922" xlink:href="#MicrosoftYaHei-Bold-54"/>
      </g>
     </g>
    </g>
    <g id="ytick_3">
     <g id="line2d_15">
      <g>
       <use style="stroke:#000000;stroke-width:0.8;" x="180" xlink:href="#m07ba65bc57" y="421.753846"/>
      </g>
     </g>
     <g id="text_15">
      <!-- 18 -->
      <g transform="translate(160.665625 425.750721)scale(0.1 -0.1)">
       <use xlink:href="#MicrosoftYaHei-Bold-49"/>
       <use x="61.669922" xlink:href="#MicrosoftYaHei-Bold-56"/>
      </g>
     </g>
    </g>
    <g id="ytick_4">
     <g id="line2d_16">
      <g>
       <use style="stroke:#000000;stroke-width:0.8;" x="180" xlink:href="#m07ba65bc57" y="344.215385"/>
      </g>
     </g>
     <g id="text_16">
      <!-- 20 -->
      <g transform="translate(160.665625 348.21226)scale(0.1 -0.1)">
       <use xlink:href="#MicrosoftYaHei-Bold-50"/>
       <use x="61.669922" xlink:href="#MicrosoftYaHei-Bold-48"/>
      </g>
     </g>
    </g>
    <g id="ytick_5">
     <g id="line2d_17">
      <g>
       <use style="stroke:#000000;stroke-width:0.8;" x="180" xlink:href="#m07ba65bc57" y="266.676923"/>
      </g>
     </g>
     <g id="text_17">
      <!-- 22 -->
      <g transform="translate(160.665625 270.673798)scale(0.1 -0.1)">
       <use xlink:href="#MicrosoftYaHei-Bold-50"/>
       <use x="61.669922" xlink:href="#MicrosoftYaHei-Bold-50"/>
      </g>
     </g>
    </g>
    <g id="ytick_6">
     <g id="line2d_18">
      <g>
       <use style="stroke:#000000;stroke-width:0.8;" x="180" xlink:href="#m07ba65bc57" y="189.138462"/>
      </g>
     </g>
     <g id="text_18">
      <!-- 24 -->
      <g transform="translate(160.665625 193.135337)scale(0.1 -0.1)">
       <use xlink:href="#MicrosoftYaHei-Bold-50"/>
       <use x="61.669922" xlink:href="#MicrosoftYaHei-Bold-52"/>
      </g>
     </g>
    </g>
    <g id="ytick_7">
     <g id="line2d_19">
      <g>
       <use style="stroke:#000000;stroke-width:0.8;" x="180" xlink:href="#m07ba65bc57" y="111.6"/>
      </g>
     </g>
     <g id="text_19">
      <!-- 26 -->
      <g transform="translate(160.665625 115.596875)scale(0.1 -0.1)">
       <use xlink:href="#MicrosoftYaHei-Bold-50"/>
       <use x="61.669922" xlink:href="#MicrosoftYaHei-Bold-54"/>
      </g>
     </g>
    </g>
   </g>
   <g id="line2d_20">
    <path clip-path="url(#p2bbae67be0)" d="M 230.727273 538.061538 
L 322.958678 615.6 
L 415.190083 557.446154 
L 507.421488 460.523077 
L 599.652893 344.215385 
L 691.884298 150.369231 
L 784.115702 111.6 
L 876.347107 111.6 
L 968.578512 189.138462 
L 1060.809917 266.676923 
L 1153.041322 421.753846 
L 1245.272727 538.061538 
" style="fill:none;stroke:#1f77b4;stroke-linecap:square;stroke-width:1.5;"/>
   </g>
   <g id="patch_3">
    <path d="M 180 640.8 
L 180 86.4 
" style="fill:none;stroke:#000000;stroke-linecap:square;stroke-linejoin:miter;stroke-width:0.8;"/>
   </g>
   <g id="patch_4">
    <path d="M 1296 640.8 
L 1296 86.4 
" style="fill:none;stroke:#000000;stroke-linecap:square;stroke-linejoin:miter;stroke-width:0.8;"/>
   </g>
   <g id="patch_5">
    <path d="M 180 640.8 
L 1296 640.8 
" style="fill:none;stroke:#000000;stroke-linecap:square;stroke-linejoin:miter;stroke-width:0.8;"/>
   </g>
   <g id="patch_6">
    <path d="M 180 86.4 
L 1296 86.4 
" style="fill:none;stroke:#000000;stroke-linecap:square;stroke-linejoin:miter;stroke-width:0.8;"/>
   </g>
  </g>
 </g>
 <defs>
  <clipPath id="p2bbae67be0">
   <rect height="554.4" width="1116" x="180" y="86.4"/>
  </clipPath>
 </defs>
</svg>
